Coordinates
version=1
nRows=14
nColumns=40
inDegrees=yes

Units are S.I. units (second, meters, Newtons, ...)
Angles are in degrees.

endheader
time	pelvis_tilt	pelvis_list	pelvis_rotation	pelvis_tx	pelvis_ty	pelvis_tz	hip_flexion_r	hip_adduction_r	hip_rotation_r	knee_angle_r	knee_angle_r_beta	ankle_angle_r	subtalar_angle_r	mtp_angle_r	hip_flexion_l	hip_adduction_l	hip_rotation_l	knee_angle_l	knee_angle_l_beta	ankle_angle_l	subtalar_angle_l	mtp_angle_l	lumbar_extension	lumbar_bending	lumbar_rotation	arm_flex_r	arm_add_r	arm_rot_r	elbow_flex_r	pro_sup_r	wrist_flex_r	wrist_dev_r	arm_flex_l	arm_add_l	arm_rot_l	elbow_flex_l	pro_sup_l	wrist_flex_l	wrist_dev_l
     13.87500000	     -2.97032602	     -4.13231230	     -3.06584681	      1.03116993	      0.92930244	      0.47973016	     15.63885409	      0.79077548	    -12.11429015	     20.12157070	     20.12157070	      9.31017523	      0.28157392	     -3.52987380	      6.63006395	    -11.24093420	     -8.40528104	     33.15515113	     33.15515113	     14.73728740	    -13.20165209	     -3.10985144	     -8.75684802	      6.11471155	      1.57133320	      3.62114073	    -13.38120643	     -2.78374228	     34.91573472	     45.95440569	      0.00000000	      0.00000000	     12.97116060	    -15.02389426	    -10.27183074	     57.66954561	     47.69732468	      0.00000000	      0.00000000
     13.88828571	     -2.91058972	     -4.26704072	     -2.71745021	      1.03113072	      0.92977105	      0.48283136	     14.95516218	      1.08611428	    -12.61147325	     19.71915045	     19.71915045	      9.48231436	      0.55873203	     -3.52151993	      8.45725329	    -11.91539098	     -7.45264992	     36.90759757	     36.90759757	     13.44384439	    -14.25641873	     -3.49568467	     -8.81772579	      6.21425635	      1.62697392	      4.81113872	    -13.58487792	     -2.69087057	     35.62780203	     45.92795505	      0.00000000	      0.00000000	     12.04427867	    -14.42441666	    -10.18732941	     56.30027955	     47.65459357	      0.00000000	      0.00000000
     13.90157143	     -2.86214415	     -4.30800977	     -2.33559686	      1.03077060	      0.93011776	      0.48571550	     14.35697882	      1.24220611	    -13.16995484	     19.43555042	     19.43555042	      9.76229353	      1.00053884	     -3.63428378	     10.39831760	    -12.36760563	     -6.32106297	     40.62586318	     40.62586318	     12.09227172	    -15.35401774	     -3.31531593	     -8.85694785	      6.24022090	      1.81083825	      5.81221195	    -14.06836388	     -1.76505723	     36.98618130	     45.82227983	      0.00000000	      0.00000000	     12.19493301	    -13.48491375	    -10.76805511	     52.41420261	     47.61166450	      0.00000000	      0.00000000
     13.91485714	     -2.76444738	     -4.47909152	     -1.92583816	      1.03019428	      0.93038484	      0.48847277	     13.71387287	      1.57117356	    -13.61222075	     19.13896961	     19.13896961	      9.98043558	      1.13147477	     -3.64230634	     12.35045068	    -12.95825217	     -5.27771905	     44.25186631	     44.25186631	     10.79335709	    -16.01262441	     -3.24483168	     -9.06841120	      6.35868165	      1.92984073	      7.13575913	    -14.38719085	     -1.75970647	     37.71792789	     45.80224991	      0.00000000	      0.00000000	     11.28540473	    -12.92873043	    -10.65713468	     51.31559414	     47.57247792	      0.00000000	      0.00000000
     13.92814286	     -2.82695721	     -4.50977752	     -1.49515309	      1.02937895	      0.93044274	      0.49087568	     13.28833718	      1.70665869	    -14.14257079	     18.88388543	     18.88388543	     10.16663496	      1.40704982	     -3.74707848	     14.59375473	    -13.21852136	     -4.06704708	     47.84680751	     47.84680751	     10.60486224	    -16.20674782	     -0.20441176	     -8.98371273	      6.38623200	      2.05169717	      7.97459411	    -15.06645199	     -0.50580203	     39.55167393	     45.66508528	      0.00000000	      0.00000000	     11.64025937	    -12.06075925	    -11.27734390	     46.65023447	     47.51946807	      0.00000000	      0.00000000
     13.94142857	     -2.80518796	     -4.66309460	     -1.07528984	      1.02847755	      0.93048074	      0.49324473	     12.77772860	      2.00973340	    -14.54922809	     18.62053570	     18.62053570	     10.36175598	      1.43537667	     -3.74841229	     16.58217845	    -13.63281573	     -3.07720247	     50.80749512	     50.80749512	      9.55669269	    -16.50627509	      0.09125387	     -9.12838038	      6.49138940	      2.16716607	      9.34671347	    -15.44208616	     -0.55594266	     40.33472160	     45.64701703	      0.00000000	      0.00000000	     10.63590124	    -11.56971906	    -11.17737823	     45.64639691	     47.48016784	      0.00000000	      0.00000000
     13.95471429	     -2.89981493	     -4.71570318	     -0.62741204	      1.02742955	      0.93043597	      0.49538038	     12.39676118	      2.20262911	    -14.94082138	     18.32263066	     18.32263066	     10.52298687	      1.46477723	     -3.76802141	     18.65400988	    -13.85853321	     -2.16766315	     53.34484721	     53.34484721	      8.99729944	    -16.60328632	      1.23103692	     -9.10026834	      6.47597860	      1.85635936	     10.75822228	    -15.66629598	     -0.35897187	     41.56075173	     45.59900651	      0.00000000	      0.00000000	      9.73404937	    -11.27608376	    -11.15640882	     43.50123010	     47.43185394	      0.00000000	      0.00000000
     13.96800000	     -2.88817671	     -4.70001955	     -0.22745391	      1.02632811	      0.93060317	      0.49724116	     11.94919595	      2.29685420	    -15.25738184	     18.10365218	     18.10365218	     10.66165191	      1.51274014	     -3.93311440	     20.59145293	    -13.92498386	     -1.35034884	     55.57800597	     55.57800597	      9.80906776	    -16.17905664	      5.31662213	     -9.18489036	      6.45214099	      2.38932076	     11.50018868	    -16.69930797	      0.99338845	     43.57580170	     45.46237974	      0.00000000	      0.00000000	     10.31708583	    -10.47188685	    -11.46315282	     38.94236437	     47.36742420	      0.00000000	      0.00000000
     13.98128571	     -2.94009340	     -4.76923714	      0.18829186	      1.02520930	      0.93066795	      0.49910881	     11.53810221	      2.50918664	    -15.54133510	     17.80471559	     17.80471559	     10.81393041	      1.49359009	     -3.92060884	     22.36198604	    -14.15975469	     -0.79624629	     56.91886681	     56.91886681	      9.38683237	    -16.17357916	      5.52584623	     -9.25400378	      6.44811197	      2.39189616	     12.82742697	    -17.00945118	      0.89314008	     44.50037456	     45.44213846	      0.00000000	      0.00000000	      9.21021177	    -10.13718197	    -11.40822278	     37.94787175	     47.32702996	      0.00000000	      0.00000000
     13.99457143	     -2.98328725	     -4.78095328	      0.60097333	      1.02413664	      0.93087624	      0.50087132	     11.09751721	      2.67092379	    -15.82051309	     17.45868240	     17.45868240	     10.94300855	      1.46212409	     -3.91728067	     23.98395831	    -14.30552843	     -0.38220323	     57.63015155	     57.63015155	      9.17252289	    -16.24408008	      5.88747743	     -9.27500156	      6.33517111	      2.23663175	     14.24475421	    -17.26182848	      0.88833704	     45.65583905	     45.40922153	      0.00000000	      0.00000000	      8.18124475	     -9.88609657	    -11.31814256	     36.50314309	     47.28214780	      0.00000000	      0.00000000
     14.00785714	     -3.02513068	     -4.68528930	      1.01515877	      1.02301702	      0.93119059	      0.50235595	     10.61018753	      2.71715195	    -16.07829762	     17.02621855	     17.02621855	     11.05375697	      1.41080025	     -3.95139095	     25.44827192	    -14.33625754	     -0.21867400	     57.69023490	     57.69023490	      9.23844597	    -16.30626814	      6.43447841	     -9.37897019	      6.21131127	      2.08338970	     15.54889717	    -17.57544940	      1.09657289	     47.14443972	     45.35449305	      0.00000000	      0.00000000	      7.36908500	     -9.65377425	    -11.17619138	     34.51616408	     47.22541629	      0.00000000	      0.00000000
     14.02114286	     -3.09408620	     -4.53516538	      1.36551423	      1.02188485	      0.93151212	      0.50377260	     10.24999422	      2.68452857	    -16.23283823	     16.77784229	     16.77784229	     11.20952120	      1.34301526	     -3.96098292	     26.73857653	    -14.34951490	     -0.30963379	     57.07642236	     57.07642236	      9.27267549	    -16.37485901	      6.56465719	     -9.46431641	      5.94977209	      2.51237173	     16.73742475	    -18.16596127	      0.96549381	     47.76583274	     45.34545372	      0.00000000	      0.00000000	      6.46220723	     -9.21874652	    -11.09911829	     33.83863015	     47.19555355	      0.00000000	      0.00000000
     14.03442857	     -3.15049821	     -4.48930674	      1.84612461	      1.02078771	      0.93188436	      0.50495323	      9.67453747	      2.80112725	    -16.55911686	     16.12321197	     16.12321197	     11.11845283	      1.33275486	     -4.26781451	     27.98042678	    -14.35181418	     -0.27123325	     55.96156743	     55.96156743	      9.52951686	    -16.54764847	      7.35525459	     -9.51478482	      5.88166581	      2.48463588	     17.33063261	    -18.88033602	      1.94129224	     51.12708627	     45.19305307	      0.00000000	      0.00000000	      6.36861601	     -9.03370801	    -10.58815646	     30.16643032	     47.06582475	      0.00000000	      0.00000000
     14.04771429	     -3.28222948	     -4.44095069	      2.26484292	      1.01963724	      0.93204645	      0.50604518	      9.41393967	      2.85306940	    -16.79223093	     15.93061376	     15.93061376	     11.26356448	      1.20618084	     -4.28228987	     29.07748946	    -14.39546395	     -0.47928025	     54.21762344	     54.21762344	      9.72808502	    -16.59268876	      7.54445167	     -9.46021694	      5.75966301	      2.90254591	     18.41054389	    -19.38389744	      1.73791578	     51.64353414	     45.19003938	      0.00000000	      0.00000000	      5.49616222	     -8.71664491	    -10.54835636	     29.74593387	     47.04235385	      0.00000000	      0.00000000
